<svg xmlns="http://www.w3.org/2000/svg" width="420" height="208" viewBox="0 0 420 208"><g transform="translate(0 -844.362)"><circle r="14" cy="944.362" cx="336" fill="#3a79da"/><path d="M100 868.362s12 0 12 12v84c0 12 10 12 10 12M56 976.362v-44c0-12 8-16 14-16h20" fill="none" stroke="#404040" stroke-width="12" stroke-linecap="round"/><circle cx="168" cy="944.362" r="32" fill="none" stroke="#404040" stroke-width="12" stroke-linecap="round" stroke-linejoin="round"/><circle r="32" cy="944.362" cx="252" fill="none" stroke="#404040" stroke-width="12" stroke-linecap="round" stroke-linejoin="round"/><path style="line-height:normal;text-indent:0;text-align:start;text-decoration-line:none;text-decoration-style:solid;text-decoration-color:#000000;text-transform:none;block-progression:tb;isolation:auto;mix-blend-mode:normal" d="M336 906.362c-20.916 0-38 17.084-38 38v82h12c0-30 35.87-43.22 46.422-49.987C366.976 969.608 374 957.773 374 944.362c0-20.916-17.084-38-38-38zm0 12c14.43 0 26 11.57 26 26s-11.57 26-26 26-26-11.57-26-26 11.57-26 26-26z" color="#000" font-family="sans-serif" white-space="normal" overflow="visible" solid-color="#000000" fill="#404040"/><path d="M304 1026.362v-44" fill="none" stroke="#404040" stroke-width="12" stroke-linecap="round"/></g></svg>